# xmcd CD database file
#
# Track frame offsets:
#	150
#	13395
#	26859
#	40012
#	57016
#	74273
#	89640
#	106230
#	122886
#
# Disc length: 1859 seconds
#
# Revision: 0
# Processed by: cddbd v1.5.1PL0 Copyright (c) Steve Scherf et al.
# Submitted via: CDex 1.50Beta6
#
DISCID=7a074109
DTITLE=Jonathan Cheney - Music Recorded Today
DYEAR=2004
DGENRE=New Age
TTITLE0=Abby's Song 1
TTITLE1=Abby's Song 2
TTITLE2=Abby's Song 3
TTITLE3=Theme For Allie 1
TTITLE4=Theme For Allie 2
TTITLE5=Come, Thou Fount of Every Blessing
TTITLE6=Keep All Your Promises 1
TTITLE7=Keep All Your Promises 2
TTITLE8=Keep All Your Promises 3
EXTD=YEAR: 2004
EXTT0=
EXTT1=
EXTT2=
EXTT3=
EXTT4=
EXTT5=
EXTT6=
EXTT7=
EXTT8=
PLAYORDER=
